<svg width="1266" height="1169" viewBox="0 0 1266 1169" fill="none" xmlns="http://www.w3.org/2000/svg">
<path d="M1063.6 1041C975.3 1184.5 653.6 1237.8 424.6 999.5C408.7 984.1 398.2 971.1 392.1 962.9C244.7 823.9 245 633.1 267.5 525.2C303.7 351.4 323.3 207.8 331.2 88.3C365.7 147.1 480.8 291 357.4 493C462.7 335.1 688.7 285.8 785.9 290.5C1098.1 305.8 1170.7 542.2 1171.9 578C888.3 245.7 288.6 417.4 345.2 880.8C357.6 906.2 373.2 937.7 392.1 963C402.7 975.9 413.5 988.1 424.6 999.6C465.7 1039.4 543.3 1094.9 676.6 1122.2C774.7 1142.2 936 1111.3 1063.6 1041Z" fill="black"/>
<path d="M846.8 163.7C712.7 181.6 506.2 274.4 437.3 353.7C440.3 246.3 637.8 127.7 734.3 101.2C830.9 74.6999 959.1 23.4999 1106.9 174.4C1034.9 158.6 1014.9 141.2 846.8 163.7Z" fill="black"/>
<path d="M864.4 1007.7C1092.4 895.4 1158.7 779.8 1166.9 719.9C1201.8 752.5 1182.6 892.2 1103 945.4C1070.6 967 1026.9 981.1 977 991.1C941.9 998.2 903.8 1003.3 864.4 1007.7Z" fill="#C9884E"/>
<path d="M1111.2 1083.5L1104 977.5L977 996.2C941.2 1003.4 903 1008.4 865 1012.7L862.2 1003.2C963.2 953.4 1041.3 898.8 1094.4 840.8C1146.5 783.8 1159.1 740.2 1162 719.2L1163.3 709.6L1170.4 716.2C1184.5 729.3 1190.9 757.3 1188 792.9C1185.7 821.7 1177.3 852.2 1164.5 878.7C1149.7 909.3 1129.5 933.7 1105.9 949.5C1091.4 959.2 1074.5 967.4 1056 974.4L1108 966.8L1108.7 971.7H1108.8L1108.1 966.8L1264.1 943.8L1265.6 953.7L1114.1 976L1121.4 1082.8L1111.2 1083.5ZM1169.8 731.9C1164.1 756.5 1147.8 797.3 1101.8 847.6C1052.8 901.2 983 951.8 894 998.4L975.6 986.4C1024.4 976.6 1068.3 962.7 1100.3 941.3C1148.2 909.3 1173.9 843.3 1178 792.2C1180 766.5 1177 745 1169.8 731.9Z" fill="#C9884E"/>
<path d="M248.4 371.5C251.2 288.3 237 155.3 277.7 23.3C86.5 183.9 212.5 303.9 248.4 371.5Z" fill="#C9884E"/>
<path d="M10 398.1L0 397.8L13.4 0L178.7 255C173.8 240 170.4 224.1 169.6 207.3C168.1 177.6 174.9 147.9 189.9 118.9C207 85.8 235.5 52.3 274.5 19.6L287.5 8.70001L282.5 24.9C251.4 125.8 252.6 226.1 253.5 306.8C253.8 330.3 254 352.5 253.4 371.8L252.8 390.5L244.1 374.2L22.4 32.2L10 398.1ZM268.1 38.2C205.7 94.2 176.7 149.4 179.6 206.7C182.2 258.4 210.5 302.1 233.2 337.2C236.9 342.8 240.4 348.3 243.7 353.6C243.8 339 243.6 323.2 243.5 306.8C242.6 229.8 241.5 134.9 268.1 38.2Z" fill="#C9884E"/>
<path d="M791.5 1168.5C727.6 1168.5 662.6 1155.1 601.7 1129.2C534.5 1100.6 473.7 1058 420.2 1002.1C408.3 990.5 397.6 978.5 388.5 966.3C322.3 903.8 279.5 825.4 261.3 733.4C243.4 643 254.5 563.6 262.7 524.2C296.5 361.9 317.9 215.2 326.3 88L327.4 71.8L335.6 85.8C338.7 91 342.3 96.8 346.5 103.6C367.8 137.5 399.9 188.7 412.6 254.9C424.7 318.1 416.3 382.4 387.5 446.6C444.4 384.8 517.2 347.5 572.8 326.1C659.6 292.7 741.9 283.4 786 285.5C858.4 289.1 923.7 304.8 979.8 332.3C1026 355 1066.2 385.5 1099.1 423.2C1155.4 487.6 1176 556.3 1176.7 577.8L1177.2 592.1L1167.9 581.2C1027.9 417.2 790.7 363.9 591 451.6C417 528.1 326.9 687.8 349.9 879C363.3 906.7 378 935.8 396 959.8C406.9 973 418.2 985.7 429.8 997.7C474.1 1040.1 550.9 1091.1 677.4 1117.1C777.7 1137.7 939 1103.8 1061 1036.6L1077.6 1027.5L1067.7 1043.6C1025.3 1112.5 931.2 1159.9 822 1167.4C812 1168.2 801.8 1168.5 791.5 1168.5ZM518.7 1072.5C610.1 1134.5 715.1 1164.7 821.5 1157.5C918.3 1150.9 1002.7 1112.3 1047.6 1055.2C990 1084.6 925.6 1107 860 1120.4C790 1134.7 724.5 1137 675.6 1127C617.3 1115 564.8 1096.8 518.7 1072.5ZM335.2 104.4C326.1 228.4 305 370.2 272.5 526.4C260.5 583.7 234.6 771.2 360.7 922.4C353.6 909.4 347.1 896.1 340.8 883.1L345.3 880.9H345.2L340.7 883.1C266.4 730.1 301 576 353.1 490.5L357.4 493.1L353.1 490.5C463.8 309.3 378.9 174.1 338.1 109.1C337.1 107.4 336.1 105.8 335.2 104.4ZM361.6 495.7C313.9 573.9 281.4 711 337.4 850.9C334.8 809.6 337.5 769.7 345.3 731.8C354.5 687.2 371 645.4 394.2 607.3C437.8 535.8 504.5 478.8 587.1 442.5C681.2 401.1 789.9 389.6 893.2 410C999 430.9 1092.3 483.2 1164 561.6C1156.9 533.3 1135.9 480.4 1091.7 429.9C1041.9 373 948.4 303.5 785.6 295.5C742.4 293.4 661.7 302.6 576.4 335.4C510.2 360.9 419.2 409.4 361.6 495.7ZM431.9 367.5L432.3 353.5C433 327.2 444.9 299 467.4 269.6C486.9 244.2 513.9 218.4 547.7 193.1C605.4 149.8 679.8 110.9 732.9 96.4001C739.6 94.5001 746.4 92.6 753.6 90.6C801.2 77 855 61.6 915 67.3C984.5 73.9 1048.4 107.8 1110.3 171L1122.1 183L1105.6 179.3C1094.2 176.8 1084.2 174.2 1074.6 171.8C1024.3 159 988 149.8 847.3 168.6C782.8 177.2 699.8 203.3 619.5 240.1C537.9 277.5 472.9 320.1 440.9 356.9L431.9 367.5ZM889.5 76C841.2 76 796.7 88.7 756.5 100.2C749.3 102.3 742.5 104.2 735.7 106.1C692.4 117.9 619.4 151.9 553.8 201.1C490.6 248.6 452.2 297 444 339.3C479.4 304.2 540.7 265.4 615.5 231.1C696.7 193.8 780.7 167.5 846.2 158.8C988.8 139.7 1025.9 149.2 1077.3 162.2C1081.7 163.3 1086.1 164.4 1090.8 165.6C1018 96.4 950.7 76 889.5 76Z" fill="black"/>
</svg>
