<svg width="85" height="78" viewBox="0 0 85 78" fill="none" xmlns="http://www.w3.org/2000/svg">
<path d="M14.9158 45.0376C13.4289 45.5486 12.6241 47.1769 13.2913 48.6005C15.5246 53.366 19.135 57.3815 23.6861 60.1085C29.0547 63.3253 35.3871 64.5423 41.5657 63.5446C47.7443 62.5468 53.3718 59.3986 57.455 54.6554C61.5382 49.9123 63.8146 43.8791 63.8825 37.6209C63.9503 31.3627 61.8052 25.2816 57.8258 20.4511C53.8464 15.6205 48.2884 12.351 42.1329 11.2195C35.9775 10.0881 29.6202 11.1675 24.1831 14.2672C19.5739 16.8948 15.8773 20.8312 13.5412 25.547C12.8433 26.9559 13.6127 28.6012 15.0881 29.1444C16.5636 29.6875 18.1833 28.9193 18.9221 27.5314C20.7661 24.0677 23.5606 21.1759 27.0029 19.2134C31.2741 16.7784 36.2681 15.9305 41.1036 16.8193C45.9391 17.7082 50.3052 20.2766 53.4313 24.0713C56.5574 27.866 58.2425 32.643 58.1892 37.5592C58.1359 42.4754 56.3476 47.2148 53.14 50.9408C49.9324 54.6668 45.5117 57.14 40.658 57.9237C35.8044 58.7075 30.8299 57.7515 26.6125 55.2245C23.2135 53.1878 20.4824 50.2362 18.7139 46.7333C18.0053 45.3297 16.4027 44.5266 14.9158 45.0376Z" fill="black"/>
<path fill-rule="evenodd" clip-rule="evenodd" d="M55.8924 52.1537C56.9841 50.9244 58.8747 50.8048 60.1152 51.8866L83.131 71.9567C84.3716 73.0385 84.4922 74.9119 83.4006 76.1412C82.3089 77.3705 80.4183 77.4901 79.1778 76.4083L56.1619 56.3382C54.9214 55.2564 54.8007 53.383 55.8924 52.1537Z" fill="black"/>
</svg>
