<svg width="288" height="399" viewBox="0 0 288 399" fill="none" xmlns="http://www.w3.org/2000/svg">
<path d="M10 398.1L0 397.8L13.4 0L178.7 255C173.8 240 170.4 224.1 169.6 207.3C168.1 177.6 174.9 147.9 189.9 118.9C207 85.8 235.5 52.3 274.5 19.6L287.5 8.70001L282.5 24.9C251.4 125.8 252.6 226.1 253.5 306.8C253.8 330.3 254 352.5 253.4 371.8L252.8 390.5L244.1 374.2L22.4 32.2L10 398.1ZM268.1 38.2C205.7 94.2 176.7 149.4 179.6 206.7C182.2 258.4 210.5 302.1 233.2 337.2C236.9 342.8 240.4 348.3 243.7 353.6C243.8 339 243.6 323.2 243.5 306.8C242.6 229.8 241.5 134.9 268.1 38.2Z" fill="#C9884E"/>
</svg>
