<svg width="927" height="1103" viewBox="0 0 927 1103" fill="none" xmlns="http://www.w3.org/2000/svg">
<path d="M540.5 1102.5C476.6 1102.5 411.6 1089.1 350.7 1063.2C283.5 1034.6 222.7 992 169.2 936.1C157.3 924.5 146.6 912.5 137.5 900.3C71.3002 837.8 28.5001 759.4 10.3001 667.4C-7.59986 577 3.50016 497.6 11.7002 458.2C45.5002 295.9 66.9001 149.2 75.3001 22L76.4002 5.80002L84.6001 19.8C87.7001 25 91.3001 30.8 95.5001 37.6C116.8 71.5 148.9 122.7 161.6 188.9C173.7 252.1 165.3 316.4 136.5 380.6C193.4 318.8 266.2 281.5 321.8 260.1C408.6 226.7 490.9 217.4 535 219.5C607.4 223.1 672.7 238.8 728.8 266.3C775 289 815.2 319.5 848.1 357.2C904.4 421.6 925 490.3 925.7 511.8L926.2 526.1L916.9 515.2C776.9 351.2 539.7 297.9 340 385.6C166 462.1 75.9002 621.8 98.9002 813C112.3 840.7 127 869.8 145 893.8C155.9 907 167.2 919.7 178.8 931.7C223.1 974.1 299.9 1025.1 426.4 1051.1C526.7 1071.7 688 1037.8 810 970.6L826.6 961.5L816.7 977.6C774.3 1046.5 680.2 1093.9 571 1101.4C561 1102.2 550.8 1102.5 540.5 1102.5ZM267.7 1006.5C359.1 1068.5 464.1 1098.7 570.5 1091.5C667.3 1084.9 751.7 1046.3 796.6 989.2C739 1018.6 674.6 1041 609 1054.4C539 1068.7 473.5 1071 424.6 1061C366.3 1049 313.8 1030.8 267.7 1006.5ZM84.2002 38.4001C75.1002 162.4 54.0001 304.2 21.5001 460.4C9.50015 517.7 -16.3998 705.2 109.7 856.4C102.6 843.4 96.1001 830.1 89.8001 817.1L94.3001 814.9H94.2002L89.7002 817.1C15.4002 664.1 50.0001 510 102.1 424.5L106.4 427.1L102.1 424.5C212.8 243.3 127.9 108.1 87.1001 43.1C86.1001 41.4 85.1002 39.8001 84.2002 38.4001ZM110.6 429.7C62.9001 507.9 30.4002 645 86.4002 784.9C83.8002 743.6 86.5001 703.7 94.3001 665.8C103.5 621.2 120 579.4 143.2 541.3C186.8 469.8 253.5 412.8 336.1 376.5C430.2 335.1 538.9 323.6 642.2 344C748 364.9 841.3 417.2 913 495.6C905.9 467.3 884.9 414.4 840.7 363.9C790.9 307 697.4 237.5 534.6 229.5C491.4 227.4 410.7 236.6 325.4 269.4C259.2 294.9 168.2 343.4 110.6 429.7ZM180.9 301.5L181.3 287.5C182 261.2 193.9 233 216.4 203.6C235.9 178.2 262.9 152.4 296.7 127.1C354.4 83.8 428.8 44.9001 481.9 30.4001C488.6 28.5001 495.4 26.6 502.6 24.6C550.2 11 604 -4.39998 664 1.30002C733.5 7.90002 797.4 41.8 859.3 105L871.1 117L854.6 113.3C843.2 110.8 833.2 108.2 823.6 105.8C773.3 93 737 83.8 596.3 102.6C531.8 111.2 448.8 137.3 368.5 174.1C286.9 211.5 221.9 254.1 189.9 290.9L180.9 301.5ZM638.5 10C590.2 10 545.7 22.7 505.5 34.2C498.3 36.3 491.5 38.2 484.7 40.1C441.4 51.9 368.4 85.9 302.8 135.1C239.6 182.6 201.2 231 193 273.3C228.4 238.2 289.7 199.4 364.5 165.1C445.7 127.8 529.7 101.5 595.2 92.8C737.8 73.7 774.9 83.2 826.3 96.2C830.7 97.3 835.1 98.4 839.8 99.6C767 30.4 699.7 10 638.5 10Z" fill="black"/>
</svg>
