<svg width="404" height="375" viewBox="0 0 404 375" fill="none" xmlns="http://www.w3.org/2000/svg">
<path d="M249.2 374.5L242 268.5L115 287.2C79.2002 294.4 41.0002 299.4 3.00024 303.7L0.200195 294.2C101.2 244.4 179.3 189.8 232.4 131.8C284.5 74.8 297.1 31.2 300 10.2L301.3 0.599976L308.4 7.19995C322.5 20.3 328.9 48.3 326 83.9C323.7 112.7 315.3 143.2 302.5 169.7C287.7 200.3 267.5 224.7 243.9 240.5C229.4 250.2 212.5 258.4 194 265.4L246 257.8L246.7 262.7H246.8L246.1 257.8L402.1 234.8L403.6 244.7L252.1 267L259.4 373.8L249.2 374.5ZM307.8 22.9C302.1 47.5 285.8 88.3 239.8 138.6C190.8 192.2 121 242.8 32.0002 289.4L113.6 277.4C162.4 267.6 206.3 253.7 238.3 232.3C286.2 200.3 311.9 134.3 316 83.2C318 57.5 315 36 307.8 22.9Z" fill="#C9884E"/>
</svg>
